<svg xmlns="http://www.w3.org/2000/svg" viewBox="0 0 1000 1000" fill="none">
  <defs><filter id="particleSoft" x="-20%" y="-20%" width="140%" height="140%"><feGaussianBlur stdDeviation="0.35"/></filter></defs>
  <g filter="url(#particleSoft)"><circle cx="497.89" cy="113.60" r="0.96" fill="#dffbff" opacity="0.45"/><circle cx="468.46" cy="102.78" r="0.68" fill="#dffbff" opacity="0.34"/><circle cx="517.23" cy="75.51" r="2.06" fill="#aeefff" opacity="0.48"/><circle cx="408.88" cy="119.27" r="1.76" fill="#dffbff" opacity="0.79"/><circle cx="593.11" cy="98.95" r="1.40" fill="#dffbff" opacity="0.64"/><circle cx="605.19" cy="148.50" r="0.75" fill="#dffbff" opacity="0.25"/><circle cx="403.34" cy="91.18" r="2.67" fill="#ffffff" opacity="0.29"/><circle cx="585.42" cy="88.39" r="2.79" fill="#aeefff" opacity="0.35"/><circle cx="562.65" cy="98.77" r="1.29" fill="#ffffff" opacity="0.32"/><circle cx="578.70" cy="123.58" r="3.21" fill="#dffbff" opacity="0.31"/><circle cx="435.51" cy="129.49" r="1.12" fill="#dffbff" opacity="0.74"/><circle cx="422.19" cy="110.36" r="3.39" fill="#7cdfff" opacity="0.61"/><circle cx="496.64" cy="133.27" r="1.24" fill="#7cdfff" opacity="0.27"/><circle cx="484.02" cy="77.64" r="1.78" fill="#7cdfff" opacity="0.36"/><circle cx="518.16" cy="131.59" r="2.49" fill="#ffffff" opacity="0.24"/><circle cx="471.02" cy="92.18" r="1.44" fill="#7cdfff" opacity="0.29"/><circle cx="477.83" cy="89.83" r="1.12" fill="#dffbff" opacity="0.18"/><circle cx="533.08" cy="116.58" r="2.23" fill="#aeefff" opacity="0.35"/><circle cx="517.75" cy="73.78" r="0.87" fill="#ffffff" opacity="0.63"/><circle cx="556.20" cy="82.19" r="3.58" fill="#dffbff" opacity="0.56"/><circle cx="468.01" cy="79.07" r="2.65" fill="#aeefff" opacity="0.73"/><circle cx="424.40" cy="129.76" r="1.81" fill="#aeefff" opacity="0.25"/><circle cx="493.45" cy="110.22" r="1.56" fill="#ffffff" opacity="0.61"/><circle cx="454.48" cy="95.09" r="1.55" fill="#7cdfff" opacity="0.20"/><circle cx="573.13" cy="117.25" r="2.79" fill="#7cdfff" opacity="0.65"/><circle cx="578.86" cy="112.59" r="2.38" fill="#dffbff" opacity="0.44"/><circle cx="535.51" cy="116.28" r="2.78" fill="#aeefff" opacity="0.74"/><circle cx="583.57" cy="108.28" r="2.32" fill="#7cdfff" opacity="0.66"/><circle cx="489.14" cy="123.44" r="2.04" fill="#7cdfff" opacity="0.63"/><circle cx="411.07" cy="86.29" r="2.42" fill="#aeefff" opacity="0.33"/><circle cx="519.49" cy="125.38" r="1.85" fill="#7cdfff" opacity="0.73"/><circle cx="436.17" cy="111.56" r="3.21" fill="#7cdfff" opacity="0.25"/><circle cx="446.94" cy="101.76" r="2.76" fill="#7cdfff" opacity="0.66"/><circle cx="539.29" cy="134.17" r="0.86" fill="#ffffff" opacity="0.64"/><circle cx="442.40" cy="85.76" r="1.43" fill="#dffbff" opacity="0.24"/><circle cx="475.93" cy="112.39" r="2.97" fill="#ffffff" opacity="0.20"/><circle cx="491.84" cy="110.24" r="2.34" fill="#aeefff" opacity="0.79"/><circle cx="574.72" cy="132.30" r="1.18" fill="#aeefff" opacity="0.35"/><circle cx="478.68" cy="101.31" r="0.99" fill="#dffbff" opacity="0.41"/><circle cx="444.98" cy="78.16" r="3.09" fill="#aeefff" opacity="0.47"/><circle cx="520.71" cy="136.11" r="1.90" fill="#aeefff" opacity="0.20"/><circle cx="446.56" cy="121.49" r="1.58" fill="#7cdfff" opacity="0.32"/><circle cx="447.24" cy="123.51" r="0.76" fill="#aeefff" opacity="0.60"/><circle cx="420.70" cy="140.87" r="0.91" fill="#aeefff" opacity="0.68"/><circle cx="568.98" cy="97.99" r="1.71" fill="#7cdfff" opacity="0.69"/><circle cx="479.97" cy="108.09" r="1.54" fill="#dffbff" opacity="0.77"/><circle cx="519.29" cy="73.77" r="1.29" fill="#ffffff" opacity="0.37"/><circle cx="558.55" cy="88.48" r="2.80" fill="#dffbff" opacity="0.73"/><circle cx="549.20" cy="76.30" r="3.21" fill="#ffffff" opacity="0.34"/><circle cx="560.27" cy="130.54" r="1.07" fill="#dffbff" opacity="0.45"/><circle cx="599.23" cy="111.88" r="2.25" fill="#dffbff" opacity="0.67"/><circle cx="466.01" cy="120.88" r="1.40" fill="#dffbff" opacity="0.54"/><circle cx="487.57" cy="81.46" r="2.44" fill="#ffffff" opacity="0.77"/><circle cx="431.79" cy="102.86" r="3.70" fill="#7cdfff" opacity="0.70"/><circle cx="518.31" cy="127.83" r="1.39" fill="#dffbff" opacity="0.58"/><circle cx="613.97" cy="115.88" r="2.57" fill="#ffffff" opacity="0.65"/><circle cx="508.48" cy="108.36" r="1.01" fill="#aeefff" opacity="0.72"/><circle cx="421.57" cy="126.58" r="1.26" fill="#ffffff" opacity="0.27"/><circle cx="517.41" cy="77.49" r="2.15" fill="#ffffff" opacity="0.61"/><circle cx="461.12" cy="103.27" r="1.66" fill="#aeefff" opacity="0.67"/><circle cx="595.74" cy="110.04" r="1.07" fill="#dffbff" opacity="0.65"/><circle cx="469.49" cy="110.71" r="3.42" fill="#dffbff" opacity="0.33"/><circle cx="509.70" cy="111.23" r="1.71" fill="#7cdfff" opacity="0.27"/><circle cx="529.44" cy="133.54" r="1.12" fill="#ffffff" opacity="0.76"/><circle cx="544.99" cy="119.81" r="0.87" fill="#dffbff" opacity="0.59"/><circle cx="538.57" cy="122.46" r="2.12" fill="#dffbff" opacity="0.65"/><circle cx="438.32" cy="131.43" r="0.70" fill="#dffbff" opacity="0.68"/><circle cx="459.86" cy="88.34" r="3.08" fill="#7cdfff" opacity="0.38"/><circle cx="501.59" cy="135.08" r="1.02" fill="#dffbff" opacity="0.80"/><circle cx="534.96" cy="120.20" r="2.87" fill="#aeefff" opacity="0.44"/><circle cx="544.91" cy="133.08" r="2.95" fill="#7cdfff" opacity="0.56"/><circle cx="536.30" cy="108.23" r="1.43" fill="#ffffff" opacity="0.49"/><circle cx="611.44" cy="122.11" r="2.55" fill="#ffffff" opacity="0.19"/><circle cx="513.98" cy="105.07" r="3.15" fill="#dffbff" opacity="0.72"/><circle cx="472.91" cy="124.41" r="1.37" fill="#ffffff" opacity="0.51"/><circle cx="595.58" cy="137.08" r="0.73" fill="#aeefff" opacity="0.48"/><circle cx="515.70" cy="72.92" r="2.17" fill="#dffbff" opacity="0.61"/><circle cx="514.58" cy="72.10" r="1.24" fill="#aeefff" opacity="0.70"/><circle cx="612.82" cy="120.53" r="2.65" fill="#7cdfff" opacity="0.80"/><circle cx="414.41" cy="130.11" r="3.19" fill="#ffffff" opacity="0.47"/><circle cx="515.02" cy="133.83" r="2.27" fill="#aeefff" opacity="0.29"/><circle cx="441.82" cy="108.16" r="1.85" fill="#ffffff" opacity="0.35"/><circle cx="532.43" cy="123.55" r="1.60" fill="#aeefff" opacity="0.54"/><circle cx="560.89" cy="108.00" r="0.86" fill="#ffffff" opacity="0.51"/><circle cx="489.02" cy="135.00" r="3.70" fill="#aeefff" opacity="0.29"/><circle cx="461.20" cy="117.02" r="2.01" fill="#aeefff" opacity="0.41"/><circle cx="536.66" cy="133.35" r="0.84" fill="#7cdfff" opacity="0.25"/><circle cx="420.29" cy="89.26" r="1.80" fill="#aeefff" opacity="0.67"/><circle cx="463.20" cy="101.53" r="2.53" fill="#aeefff" opacity="0.77"/><circle cx="502.13" cy="106.78" r="3.28" fill="#7cdfff" opacity="0.25"/><circle cx="545.82" cy="92.89" r="1.20" fill="#7cdfff" opacity="0.56"/><circle cx="431.40" cy="120.54" r="1.41" fill="#aeefff" opacity="0.29"/><circle cx="567.49" cy="96.89" r="0.82" fill="#aeefff" opacity="0.19"/><circle cx="419.33" cy="108.09" r="0.86" fill="#ffffff" opacity="0.37"/><circle cx="481.42" cy="135.33" r="3.48" fill="#7cdfff" opacity="0.21"/><circle cx="281.32" cy="159.80" r="2.21" fill="#ffffff" opacity="0.65"/><circle cx="215.99" cy="222.12" r="2.65" fill="#aeefff" opacity="0.45"/><circle cx="390.08" cy="157.94" r="2.80" fill="#dffbff" opacity="0.31"/><circle cx="157.11" cy="375.03" r="1.02" fill="#7cdfff" opacity="0.80"/><circle cx="263.23" cy="194.54" r="3.25" fill="#aeefff" opacity="0.68"/><circle cx="184.04" cy="285.43" r="1.17" fill="#dffbff" opacity="0.46"/><circle cx="280.46" cy="228.26" r="1.13" fill="#dffbff" opacity="0.39"/><circle cx="297.11" cy="226.70" r="2.09" fill="#aeefff" opacity="0.20"/><circle cx="167.44" cy="306.13" r="2.07" fill="#dffbff" opacity="0.23"/><circle cx="353.35" cy="165.64" r="3.24" fill="#aeefff" opacity="0.20"/><circle cx="218.86" cy="206.80" r="1.90" fill="#dffbff" opacity="0.48"/><circle cx="330.27" cy="182.72" r="0.87" fill="#7cdfff" opacity="0.51"/><circle cx="326.49" cy="196.65" r="2.66" fill="#7cdfff" opacity="0.44"/><circle cx="301.20" cy="186.21" r="1.48" fill="#dffbff" opacity="0.69"/><circle cx="195.77" cy="327.07" r="1.55" fill="#7cdfff" opacity="0.73"/><circle cx="181.80" cy="275.58" r="1.37" fill="#aeefff" opacity="0.78"/><circle cx="211.87" cy="315.46" r="1.21" fill="#dffbff" opacity="0.32"/><circle cx="227.35" cy="286.39" r="2.11" fill="#aeefff" opacity="0.43"/><circle cx="173.28" cy="304.11" r="2.42" fill="#aeefff" opacity="0.29"/><circle cx="137.99" cy="338.78" r="3.20" fill="#dffbff" opacity="0.75"/><circle cx="182.95" cy="264.89" r="1.74" fill="#dffbff" opacity="0.19"/><circle cx="203.88" cy="268.13" r="1.23" fill="#7cdfff" opacity="0.78"/><circle cx="171.41" cy="335.14" r="2.65" fill="#dffbff" opacity="0.34"/><circle cx="397.84" cy="173.36" r="3.45" fill="#aeefff" opacity="0.57"/><circle cx="254.57" cy="256.54" r="0.83" fill="#ffffff" opacity="0.23"/><circle cx="237.09" cy="219.22" r="2.61" fill="#7cdfff" opacity="0.69"/><circle cx="317.56" cy="173.66" r="1.08" fill="#7cdfff" opacity="0.21"/><circle cx="396.02" cy="153.35" r="1.22" fill="#ffffff" opacity="0.55"/><circle cx="346.24" cy="161.73" r="2.87" fill="#ffffff" opacity="0.81"/><circle cx="184.04" cy="354.75" r="1.70" fill="#7cdfff" opacity="0.58"/><circle cx="342.57" cy="171.84" r="1.53" fill="#aeefff" opacity="0.32"/><circle cx="173.71" cy="367.02" r="3.44" fill="#7cdfff" opacity="0.35"/><circle cx="260.45" cy="225.71" r="2.46" fill="#7cdfff" opacity="0.39"/><circle cx="181.52" cy="329.05" r="1.14" fill="#ffffff" opacity="0.56"/><circle cx="325.62" cy="164.05" r="2.81" fill="#ffffff" opacity="0.28"/><circle cx="284.23" cy="198.57" r="2.13" fill="#dffbff" opacity="0.81"/><circle cx="184.39" cy="315.09" r="1.97" fill="#dffbff" opacity="0.76"/><circle cx="170.69" cy="310.37" r="1.22" fill="#7cdfff" opacity="0.54"/><circle cx="399.78" cy="133.77" r="1.58" fill="#aeefff" opacity="0.27"/><circle cx="224.86" cy="280.27" r="3.43" fill="#7cdfff" opacity="0.21"/><circle cx="180.95" cy="287.35" r="1.08" fill="#aeefff" opacity="0.27"/><circle cx="136.66" cy="328.08" r="1.67" fill="#ffffff" opacity="0.66"/><circle cx="163.58" cy="310.34" r="1.43" fill="#aeefff" opacity="0.71"/><circle cx="172.68" cy="336.12" r="1.64" fill="#7cdfff" opacity="0.23"/><circle cx="132.24" cy="328.14" r="3.44" fill="#7cdfff" opacity="0.69"/><circle cx="201.80" cy="327.70" r="2.56" fill="#7cdfff" opacity="0.60"/><circle cx="350.95" cy="169.28" r="0.69" fill="#ffffff" opacity="0.74"/><circle cx="202.39" cy="326.56" r="1.34" fill="#dffbff" opacity="0.26"/><circle cx="235.52" cy="237.84" r="1.45" fill="#7cdfff" opacity="0.28"/><circle cx="354.75" cy="189.58" r="2.21" fill="#ffffff" opacity="0.28"/><circle cx="174.47" cy="300.09" r="1.31" fill="#aeefff" opacity="0.61"/><circle cx="279.19" cy="230.22" r="0.85" fill="#ffffff" opacity="0.53"/><circle cx="164.12" cy="305.20" r="2.31" fill="#ffffff" opacity="0.47"/><circle cx="200.07" cy="332.91" r="1.40" fill="#7cdfff" opacity="0.32"/><circle cx="287.53" cy="165.31" r="1.48" fill="#dffbff" opacity="0.21"/></g>
</svg>