<svg xmlns="http://www.w3.org/2000/svg" viewBox="0 0 1000 1000" fill="none">
  <defs>
    <radialGradient id="coolingTimerInnerShade" cx="50%" cy="50%" r="50%">
      <stop offset="0%" stop-color="#02050c" stop-opacity="0"/>
      <stop offset="68%" stop-color="#02050c" stop-opacity="0.12"/>
      <stop offset="100%" stop-color="#0b1030" stop-opacity="0.62"/>
    </radialGradient>
    <linearGradient id="coolingTimerRingGradient" x1="185" y1="170" x2="830" y2="820" gradientUnits="userSpaceOnUse">
      <stop offset="0%" stop-color="#e9fbff"/>
      <stop offset="28%" stop-color="#9feeff"/>
      <stop offset="58%" stop-color="#65a5ff"/>
      <stop offset="100%" stop-color="#7367ff"/>
    </linearGradient>
    <filter id="softGlow" x="-30%" y="-30%" width="160%" height="160%" color-interpolation-filters="sRGB">
      <feGaussianBlur stdDeviation="10" result="blur"/>
      <feColorMatrix in="blur" type="matrix" values="0 0 0 0 0.22  0 0 0 0 0.62  0 0 0 0 1  0 0 0 0.75 0" result="blueGlow"/>
      <feMerge>
        <feMergeNode in="blueGlow"/>
        <feMergeNode in="SourceGraphic"/>
      </feMerge>
    </filter>
    <filter id="wideHalo" x="-40%" y="-40%" width="180%" height="180%" color-interpolation-filters="sRGB">
      <feGaussianBlur stdDeviation="24"/>
    </filter>
  </defs>
  <circle cx="500" cy="500" r="374" stroke="#3347ff" stroke-width="42" opacity="0.18" filter="url(#wideHalo)"/>
  <circle cx="500" cy="500" r="374" stroke="url(#coolingTimerRingGradient)" stroke-width="36" opacity="0.64" filter="url(#softGlow)"/>
  <circle cx="500" cy="500" r="374" stroke="#dff9ff" stroke-width="2" opacity="0.72"/>
  <circle cx="500" cy="500" r="327" stroke="#79c7ff" stroke-width="1" opacity="0.18"/>
  <g class="cooling-timer-ticks"><line x1="500.00" y1="152.00" x2="500.00" y2="176.00" stroke="white" stroke-width="2.6" stroke-linecap="round" opacity="0.88"/><line x1="513.66" y1="152.27" x2="513.23" y2="163.26" stroke="white" stroke-width="1.2" stroke-linecap="round" opacity="0.34"/><line x1="527.30" y1="153.07" x2="526.44" y2="164.04" stroke="white" stroke-width="1.2" stroke-linecap="round" opacity="0.34"/><line x1="540.90" y1="154.41" x2="539.61" y2="165.34" stroke="white" stroke-width="1.2" stroke-linecap="round" opacity="0.34"/><line x1="554.44" y1="156.28" x2="552.72" y2="167.15" stroke="white" stroke-width="1.2" stroke-linecap="round" opacity="0.34"/><line x1="567.89" y1="158.69" x2="565.75" y2="169.48" stroke="white" stroke-width="1.2" stroke-linecap="round" opacity="0.34"/><line x1="581.24" y1="161.62" x2="578.67" y2="172.31" stroke="white" stroke-width="1.2" stroke-linecap="round" opacity="0.34"/><line x1="594.46" y1="165.07" x2="591.48" y2="175.65" stroke="white" stroke-width="1.2" stroke-linecap="round" opacity="0.34"/><line x1="607.54" y1="169.03" x2="604.14" y2="179.49" stroke="white" stroke-width="1.2" stroke-linecap="round" opacity="0.34"/><line x1="620.45" y1="173.51" x2="616.64" y2="183.83" stroke="white" stroke-width="1.2" stroke-linecap="round" opacity="0.34"/><line x1="633.17" y1="178.49" x2="626.67" y2="194.20" stroke="white" stroke-width="1.8" stroke-linecap="round" opacity="0.58"/><line x1="645.69" y1="183.97" x2="641.09" y2="193.96" stroke="white" stroke-width="1.2" stroke-linecap="round" opacity="0.34"/><line x1="657.99" y1="189.93" x2="652.99" y2="199.73" stroke="white" stroke-width="1.2" stroke-linecap="round" opacity="0.34"/><line x1="670.04" y1="196.37" x2="664.67" y2="205.97" stroke="white" stroke-width="1.2" stroke-linecap="round" opacity="0.34"/><line x1="681.83" y1="203.28" x2="676.08" y2="212.66" stroke="white" stroke-width="1.2" stroke-linecap="round" opacity="0.34"/><line x1="693.34" y1="210.65" x2="687.23" y2="219.79" stroke="white" stroke-width="1.2" stroke-linecap="round" opacity="0.34"/><line x1="704.55" y1="218.46" x2="698.08" y2="227.36" stroke="white" stroke-width="1.2" stroke-linecap="round" opacity="0.34"/><line x1="715.44" y1="226.71" x2="708.63" y2="235.35" stroke="white" stroke-width="1.2" stroke-linecap="round" opacity="0.34"/><line x1="726.01" y1="235.38" x2="718.86" y2="243.74" stroke="white" stroke-width="1.2" stroke-linecap="round" opacity="0.34"/><line x1="736.22" y1="244.46" x2="728.76" y2="252.53" stroke="white" stroke-width="1.2" stroke-linecap="round" opacity="0.34"/><line x1="746.07" y1="253.93" x2="729.10" y2="270.90" stroke="white" stroke-width="2.6" stroke-linecap="round" opacity="0.88"/><line x1="755.54" y1="263.78" x2="747.47" y2="271.24" stroke="white" stroke-width="1.2" stroke-linecap="round" opacity="0.34"/><line x1="764.62" y1="273.99" x2="756.26" y2="281.14" stroke="white" stroke-width="1.2" stroke-linecap="round" opacity="0.34"/><line x1="773.29" y1="284.56" x2="764.65" y2="291.37" stroke="white" stroke-width="1.2" stroke-linecap="round" opacity="0.34"/><line x1="781.54" y1="295.45" x2="772.64" y2="301.92" stroke="white" stroke-width="1.2" stroke-linecap="round" opacity="0.34"/><line x1="789.35" y1="306.66" x2="780.21" y2="312.77" stroke="white" stroke-width="1.2" stroke-linecap="round" opacity="0.34"/><line x1="796.72" y1="318.17" x2="787.34" y2="323.92" stroke="white" stroke-width="1.2" stroke-linecap="round" opacity="0.34"/><line x1="803.63" y1="329.96" x2="794.03" y2="335.33" stroke="white" stroke-width="1.2" stroke-linecap="round" opacity="0.34"/><line x1="810.07" y1="342.01" x2="800.27" y2="347.01" stroke="white" stroke-width="1.2" stroke-linecap="round" opacity="0.34"/><line x1="816.03" y1="354.31" x2="806.04" y2="358.91" stroke="white" stroke-width="1.2" stroke-linecap="round" opacity="0.34"/><line x1="821.51" y1="366.83" x2="805.80" y2="373.33" stroke="white" stroke-width="1.8" stroke-linecap="round" opacity="0.58"/><line x1="826.49" y1="379.55" x2="816.17" y2="383.36" stroke="white" stroke-width="1.2" stroke-linecap="round" opacity="0.34"/><line x1="830.97" y1="392.46" x2="820.51" y2="395.86" stroke="white" stroke-width="1.2" stroke-linecap="round" opacity="0.34"/><line x1="834.93" y1="405.54" x2="824.35" y2="408.52" stroke="white" stroke-width="1.2" stroke-linecap="round" opacity="0.34"/><line x1="838.38" y1="418.76" x2="827.69" y2="421.33" stroke="white" stroke-width="1.2" stroke-linecap="round" opacity="0.34"/><line x1="841.31" y1="432.11" x2="830.52" y2="434.25" stroke="white" stroke-width="1.2" stroke-linecap="round" opacity="0.34"/><line x1="843.72" y1="445.56" x2="832.85" y2="447.28" stroke="white" stroke-width="1.2" stroke-linecap="round" opacity="0.34"/><line x1="845.59" y1="459.10" x2="834.66" y2="460.39" stroke="white" stroke-width="1.2" stroke-linecap="round" opacity="0.34"/><line x1="846.93" y1="472.70" x2="835.96" y2="473.56" stroke="white" stroke-width="1.2" stroke-linecap="round" opacity="0.34"/><line x1="847.73" y1="486.34" x2="836.74" y2="486.77" stroke="white" stroke-width="1.2" stroke-linecap="round" opacity="0.34"/><line x1="848.00" y1="500.00" x2="824.00" y2="500.00" stroke="white" stroke-width="2.6" stroke-linecap="round" opacity="0.88"/><line x1="847.73" y1="513.66" x2="836.74" y2="513.23" stroke="white" stroke-width="1.2" stroke-linecap="round" opacity="0.34"/><line x1="846.93" y1="527.30" x2="835.96" y2="526.44" stroke="white" stroke-width="1.2" stroke-linecap="round" opacity="0.34"/><line x1="845.59" y1="540.90" x2="834.66" y2="539.61" stroke="white" stroke-width="1.2" stroke-linecap="round" opacity="0.34"/><line x1="843.72" y1="554.44" x2="832.85" y2="552.72" stroke="white" stroke-width="1.2" stroke-linecap="round" opacity="0.34"/><line x1="841.31" y1="567.89" x2="830.52" y2="565.75" stroke="white" stroke-width="1.2" stroke-linecap="round" opacity="0.34"/><line x1="838.38" y1="581.24" x2="827.69" y2="578.67" stroke="white" stroke-width="1.2" stroke-linecap="round" opacity="0.34"/><line x1="834.93" y1="594.46" x2="824.35" y2="591.48" stroke="white" stroke-width="1.2" stroke-linecap="round" opacity="0.34"/><line x1="830.97" y1="607.54" x2="820.51" y2="604.14" stroke="white" stroke-width="1.2" stroke-linecap="round" opacity="0.34"/><line x1="826.49" y1="620.45" x2="816.17" y2="616.64" stroke="white" stroke-width="1.2" stroke-linecap="round" opacity="0.34"/><line x1="821.51" y1="633.17" x2="805.80" y2="626.67" stroke="white" stroke-width="1.8" stroke-linecap="round" opacity="0.58"/><line x1="816.03" y1="645.69" x2="806.04" y2="641.09" stroke="white" stroke-width="1.2" stroke-linecap="round" opacity="0.34"/><line x1="810.07" y1="657.99" x2="800.27" y2="652.99" stroke="white" stroke-width="1.2" stroke-linecap="round" opacity="0.34"/><line x1="803.63" y1="670.04" x2="794.03" y2="664.67" stroke="white" stroke-width="1.2" stroke-linecap="round" opacity="0.34"/><line x1="796.72" y1="681.83" x2="787.34" y2="676.08" stroke="white" stroke-width="1.2" stroke-linecap="round" opacity="0.34"/><line x1="789.35" y1="693.34" x2="780.21" y2="687.23" stroke="white" stroke-width="1.2" stroke-linecap="round" opacity="0.34"/><line x1="781.54" y1="704.55" x2="772.64" y2="698.08" stroke="white" stroke-width="1.2" stroke-linecap="round" opacity="0.34"/><line x1="773.29" y1="715.44" x2="764.65" y2="708.63" stroke="white" stroke-width="1.2" stroke-linecap="round" opacity="0.34"/><line x1="764.62" y1="726.01" x2="756.26" y2="718.86" stroke="white" stroke-width="1.2" stroke-linecap="round" opacity="0.34"/><line x1="755.54" y1="736.22" x2="747.47" y2="728.76" stroke="white" stroke-width="1.2" stroke-linecap="round" opacity="0.34"/><line x1="746.07" y1="746.07" x2="729.10" y2="729.10" stroke="white" stroke-width="2.6" stroke-linecap="round" opacity="0.88"/><line x1="736.22" y1="755.54" x2="728.76" y2="747.47" stroke="white" stroke-width="1.2" stroke-linecap="round" opacity="0.34"/><line x1="726.01" y1="764.62" x2="718.86" y2="756.26" stroke="white" stroke-width="1.2" stroke-linecap="round" opacity="0.34"/><line x1="715.44" y1="773.29" x2="708.63" y2="764.65" stroke="white" stroke-width="1.2" stroke-linecap="round" opacity="0.34"/><line x1="704.55" y1="781.54" x2="698.08" y2="772.64" stroke="white" stroke-width="1.2" stroke-linecap="round" opacity="0.34"/><line x1="693.34" y1="789.35" x2="687.23" y2="780.21" stroke="white" stroke-width="1.2" stroke-linecap="round" opacity="0.34"/><line x1="681.83" y1="796.72" x2="676.08" y2="787.34" stroke="white" stroke-width="1.2" stroke-linecap="round" opacity="0.34"/><line x1="670.04" y1="803.63" x2="664.67" y2="794.03" stroke="white" stroke-width="1.2" stroke-linecap="round" opacity="0.34"/><line x1="657.99" y1="810.07" x2="652.99" y2="800.27" stroke="white" stroke-width="1.2" stroke-linecap="round" opacity="0.34"/><line x1="645.69" y1="816.03" x2="641.09" y2="806.04" stroke="white" stroke-width="1.2" stroke-linecap="round" opacity="0.34"/><line x1="633.17" y1="821.51" x2="626.67" y2="805.80" stroke="white" stroke-width="1.8" stroke-linecap="round" opacity="0.58"/><line x1="620.45" y1="826.49" x2="616.64" y2="816.17" stroke="white" stroke-width="1.2" stroke-linecap="round" opacity="0.34"/><line x1="607.54" y1="830.97" x2="604.14" y2="820.51" stroke="white" stroke-width="1.2" stroke-linecap="round" opacity="0.34"/><line x1="594.46" y1="834.93" x2="591.48" y2="824.35" stroke="white" stroke-width="1.2" stroke-linecap="round" opacity="0.34"/><line x1="581.24" y1="838.38" x2="578.67" y2="827.69" stroke="white" stroke-width="1.2" stroke-linecap="round" opacity="0.34"/><line x1="567.89" y1="841.31" x2="565.75" y2="830.52" stroke="white" stroke-width="1.2" stroke-linecap="round" opacity="0.34"/><line x1="554.44" y1="843.72" x2="552.72" y2="832.85" stroke="white" stroke-width="1.2" stroke-linecap="round" opacity="0.34"/><line x1="540.90" y1="845.59" x2="539.61" y2="834.66" stroke="white" stroke-width="1.2" stroke-linecap="round" opacity="0.34"/><line x1="527.30" y1="846.93" x2="526.44" y2="835.96" stroke="white" stroke-width="1.2" stroke-linecap="round" opacity="0.34"/><line x1="513.66" y1="847.73" x2="513.23" y2="836.74" stroke="white" stroke-width="1.2" stroke-linecap="round" opacity="0.34"/><line x1="500.00" y1="848.00" x2="500.00" y2="824.00" stroke="white" stroke-width="2.6" stroke-linecap="round" opacity="0.88"/><line x1="486.34" y1="847.73" x2="486.77" y2="836.74" stroke="white" stroke-width="1.2" stroke-linecap="round" opacity="0.34"/><line x1="472.70" y1="846.93" x2="473.56" y2="835.96" stroke="white" stroke-width="1.2" stroke-linecap="round" opacity="0.34"/><line x1="459.10" y1="845.59" x2="460.39" y2="834.66" stroke="white" stroke-width="1.2" stroke-linecap="round" opacity="0.34"/><line x1="445.56" y1="843.72" x2="447.28" y2="832.85" stroke="white" stroke-width="1.2" stroke-linecap="round" opacity="0.34"/><line x1="432.11" y1="841.31" x2="434.25" y2="830.52" stroke="white" stroke-width="1.2" stroke-linecap="round" opacity="0.34"/><line x1="418.76" y1="838.38" x2="421.33" y2="827.69" stroke="white" stroke-width="1.2" stroke-linecap="round" opacity="0.34"/><line x1="405.54" y1="834.93" x2="408.52" y2="824.35" stroke="white" stroke-width="1.2" stroke-linecap="round" opacity="0.34"/><line x1="392.46" y1="830.97" x2="395.86" y2="820.51" stroke="white" stroke-width="1.2" stroke-linecap="round" opacity="0.34"/><line x1="379.55" y1="826.49" x2="383.36" y2="816.17" stroke="white" stroke-width="1.2" stroke-linecap="round" opacity="0.34"/><line x1="366.83" y1="821.51" x2="373.33" y2="805.80" stroke="white" stroke-width="1.8" stroke-linecap="round" opacity="0.58"/><line x1="354.31" y1="816.03" x2="358.91" y2="806.04" stroke="white" stroke-width="1.2" stroke-linecap="round" opacity="0.34"/><line x1="342.01" y1="810.07" x2="347.01" y2="800.27" stroke="white" stroke-width="1.2" stroke-linecap="round" opacity="0.34"/><line x1="329.96" y1="803.63" x2="335.33" y2="794.03" stroke="white" stroke-width="1.2" stroke-linecap="round" opacity="0.34"/><line x1="318.17" y1="796.72" x2="323.92" y2="787.34" stroke="white" stroke-width="1.2" stroke-linecap="round" opacity="0.34"/><line x1="306.66" y1="789.35" x2="312.77" y2="780.21" stroke="white" stroke-width="1.2" stroke-linecap="round" opacity="0.34"/><line x1="295.45" y1="781.54" x2="301.92" y2="772.64" stroke="white" stroke-width="1.2" stroke-linecap="round" opacity="0.34"/><line x1="284.56" y1="773.29" x2="291.37" y2="764.65" stroke="white" stroke-width="1.2" stroke-linecap="round" opacity="0.34"/><line x1="273.99" y1="764.62" x2="281.14" y2="756.26" stroke="white" stroke-width="1.2" stroke-linecap="round" opacity="0.34"/><line x1="263.78" y1="755.54" x2="271.24" y2="747.47" stroke="white" stroke-width="1.2" stroke-linecap="round" opacity="0.34"/><line x1="253.93" y1="746.07" x2="270.90" y2="729.10" stroke="white" stroke-width="2.6" stroke-linecap="round" opacity="0.88"/><line x1="244.46" y1="736.22" x2="252.53" y2="728.76" stroke="white" stroke-width="1.2" stroke-linecap="round" opacity="0.34"/><line x1="235.38" y1="726.01" x2="243.74" y2="718.86" stroke="white" stroke-width="1.2" stroke-linecap="round" opacity="0.34"/><line x1="226.71" y1="715.44" x2="235.35" y2="708.63" stroke="white" stroke-width="1.2" stroke-linecap="round" opacity="0.34"/><line x1="218.46" y1="704.55" x2="227.36" y2="698.08" stroke="white" stroke-width="1.2" stroke-linecap="round" opacity="0.34"/><line x1="210.65" y1="693.34" x2="219.79" y2="687.23" stroke="white" stroke-width="1.2" stroke-linecap="round" opacity="0.34"/><line x1="203.28" y1="681.83" x2="212.66" y2="676.08" stroke="white" stroke-width="1.2" stroke-linecap="round" opacity="0.34"/><line x1="196.37" y1="670.04" x2="205.97" y2="664.67" stroke="white" stroke-width="1.2" stroke-linecap="round" opacity="0.34"/><line x1="189.93" y1="657.99" x2="199.73" y2="652.99" stroke="white" stroke-width="1.2" stroke-linecap="round" opacity="0.34"/><line x1="183.97" y1="645.69" x2="193.96" y2="641.09" stroke="white" stroke-width="1.2" stroke-linecap="round" opacity="0.34"/><line x1="178.49" y1="633.17" x2="194.20" y2="626.67" stroke="white" stroke-width="1.8" stroke-linecap="round" opacity="0.58"/><line x1="173.51" y1="620.45" x2="183.83" y2="616.64" stroke="white" stroke-width="1.2" stroke-linecap="round" opacity="0.34"/><line x1="169.03" y1="607.54" x2="179.49" y2="604.14" stroke="white" stroke-width="1.2" stroke-linecap="round" opacity="0.34"/><line x1="165.07" y1="594.46" x2="175.65" y2="591.48" stroke="white" stroke-width="1.2" stroke-linecap="round" opacity="0.34"/><line x1="161.62" y1="581.24" x2="172.31" y2="578.67" stroke="white" stroke-width="1.2" stroke-linecap="round" opacity="0.34"/><line x1="158.69" y1="567.89" x2="169.48" y2="565.75" stroke="white" stroke-width="1.2" stroke-linecap="round" opacity="0.34"/><line x1="156.28" y1="554.44" x2="167.15" y2="552.72" stroke="white" stroke-width="1.2" stroke-linecap="round" opacity="0.34"/><line x1="154.41" y1="540.90" x2="165.34" y2="539.61" stroke="white" stroke-width="1.2" stroke-linecap="round" opacity="0.34"/><line x1="153.07" y1="527.30" x2="164.04" y2="526.44" stroke="white" stroke-width="1.2" stroke-linecap="round" opacity="0.34"/><line x1="152.27" y1="513.66" x2="163.26" y2="513.23" stroke="white" stroke-width="1.2" stroke-linecap="round" opacity="0.34"/><line x1="152.00" y1="500.00" x2="176.00" y2="500.00" stroke="white" stroke-width="2.6" stroke-linecap="round" opacity="0.88"/><line x1="152.27" y1="486.34" x2="163.26" y2="486.77" stroke="white" stroke-width="1.2" stroke-linecap="round" opacity="0.34"/><line x1="153.07" y1="472.70" x2="164.04" y2="473.56" stroke="white" stroke-width="1.2" stroke-linecap="round" opacity="0.34"/><line x1="154.41" y1="459.10" x2="165.34" y2="460.39" stroke="white" stroke-width="1.2" stroke-linecap="round" opacity="0.34"/><line x1="156.28" y1="445.56" x2="167.15" y2="447.28" stroke="white" stroke-width="1.2" stroke-linecap="round" opacity="0.34"/><line x1="158.69" y1="432.11" x2="169.48" y2="434.25" stroke="white" stroke-width="1.2" stroke-linecap="round" opacity="0.34"/><line x1="161.62" y1="418.76" x2="172.31" y2="421.33" stroke="white" stroke-width="1.2" stroke-linecap="round" opacity="0.34"/><line x1="165.07" y1="405.54" x2="175.65" y2="408.52" stroke="white" stroke-width="1.2" stroke-linecap="round" opacity="0.34"/><line x1="169.03" y1="392.46" x2="179.49" y2="395.86" stroke="white" stroke-width="1.2" stroke-linecap="round" opacity="0.34"/><line x1="173.51" y1="379.55" x2="183.83" y2="383.36" stroke="white" stroke-width="1.2" stroke-linecap="round" opacity="0.34"/><line x1="178.49" y1="366.83" x2="194.20" y2="373.33" stroke="white" stroke-width="1.8" stroke-linecap="round" opacity="0.58"/><line x1="183.97" y1="354.31" x2="193.96" y2="358.91" stroke="white" stroke-width="1.2" stroke-linecap="round" opacity="0.34"/><line x1="189.93" y1="342.01" x2="199.73" y2="347.01" stroke="white" stroke-width="1.2" stroke-linecap="round" opacity="0.34"/><line x1="196.37" y1="329.96" x2="205.97" y2="335.33" stroke="white" stroke-width="1.2" stroke-linecap="round" opacity="0.34"/><line x1="203.28" y1="318.17" x2="212.66" y2="323.92" stroke="white" stroke-width="1.2" stroke-linecap="round" opacity="0.34"/><line x1="210.65" y1="306.66" x2="219.79" y2="312.77" stroke="white" stroke-width="1.2" stroke-linecap="round" opacity="0.34"/><line x1="218.46" y1="295.45" x2="227.36" y2="301.92" stroke="white" stroke-width="1.2" stroke-linecap="round" opacity="0.34"/><line x1="226.71" y1="284.56" x2="235.35" y2="291.37" stroke="white" stroke-width="1.2" stroke-linecap="round" opacity="0.34"/><line x1="235.38" y1="273.99" x2="243.74" y2="281.14" stroke="white" stroke-width="1.2" stroke-linecap="round" opacity="0.34"/><line x1="244.46" y1="263.78" x2="252.53" y2="271.24" stroke="white" stroke-width="1.2" stroke-linecap="round" opacity="0.34"/><line x1="253.93" y1="253.93" x2="270.90" y2="270.90" stroke="white" stroke-width="2.6" stroke-linecap="round" opacity="0.88"/><line x1="263.78" y1="244.46" x2="271.24" y2="252.53" stroke="white" stroke-width="1.2" stroke-linecap="round" opacity="0.34"/><line x1="273.99" y1="235.38" x2="281.14" y2="243.74" stroke="white" stroke-width="1.2" stroke-linecap="round" opacity="0.34"/><line x1="284.56" y1="226.71" x2="291.37" y2="235.35" stroke="white" stroke-width="1.2" stroke-linecap="round" opacity="0.34"/><line x1="295.45" y1="218.46" x2="301.92" y2="227.36" stroke="white" stroke-width="1.2" stroke-linecap="round" opacity="0.34"/><line x1="306.66" y1="210.65" x2="312.77" y2="219.79" stroke="white" stroke-width="1.2" stroke-linecap="round" opacity="0.34"/><line x1="318.17" y1="203.28" x2="323.92" y2="212.66" stroke="white" stroke-width="1.2" stroke-linecap="round" opacity="0.34"/><line x1="329.96" y1="196.37" x2="335.33" y2="205.97" stroke="white" stroke-width="1.2" stroke-linecap="round" opacity="0.34"/><line x1="342.01" y1="189.93" x2="347.01" y2="199.73" stroke="white" stroke-width="1.2" stroke-linecap="round" opacity="0.34"/><line x1="354.31" y1="183.97" x2="358.91" y2="193.96" stroke="white" stroke-width="1.2" stroke-linecap="round" opacity="0.34"/><line x1="366.83" y1="178.49" x2="373.33" y2="194.20" stroke="white" stroke-width="1.8" stroke-linecap="round" opacity="0.58"/><line x1="379.55" y1="173.51" x2="383.36" y2="183.83" stroke="white" stroke-width="1.2" stroke-linecap="round" opacity="0.34"/><line x1="392.46" y1="169.03" x2="395.86" y2="179.49" stroke="white" stroke-width="1.2" stroke-linecap="round" opacity="0.34"/><line x1="405.54" y1="165.07" x2="408.52" y2="175.65" stroke="white" stroke-width="1.2" stroke-linecap="round" opacity="0.34"/><line x1="418.76" y1="161.62" x2="421.33" y2="172.31" stroke="white" stroke-width="1.2" stroke-linecap="round" opacity="0.34"/><line x1="432.11" y1="158.69" x2="434.25" y2="169.48" stroke="white" stroke-width="1.2" stroke-linecap="round" opacity="0.34"/><line x1="445.56" y1="156.28" x2="447.28" y2="167.15" stroke="white" stroke-width="1.2" stroke-linecap="round" opacity="0.34"/><line x1="459.10" y1="154.41" x2="460.39" y2="165.34" stroke="white" stroke-width="1.2" stroke-linecap="round" opacity="0.34"/><line x1="472.70" y1="153.07" x2="473.56" y2="164.04" stroke="white" stroke-width="1.2" stroke-linecap="round" opacity="0.34"/><line x1="486.34" y1="152.27" x2="486.77" y2="163.26" stroke="white" stroke-width="1.2" stroke-linecap="round" opacity="0.34"/></g>
  <circle cx="500" cy="500" r="302" fill="url(#coolingTimerInnerShade)" opacity="0.72"/>
</svg>