<?xml version="1.0" encoding="UTF-8"?>
<svg id="Layer_2" data-name="Layer 2" xmlns="http://www.w3.org/2000/svg" viewBox="0 0 138.18 122.55">
  <defs>
    <style>
      .cls-1 {
        fill: #231f20;
      }
    </style>
  </defs>
  <g id="Layer_1-2" data-name="Layer 1">
    <path class="cls-1" d="M63.67,0L0,67.42V18.56C0,8.31,8.31,0,18.57,0h45.11Z"/>
    <path class="cls-1" d="M138.18,0l-9.72,10.24-49.83,52.53-17.07,18-7.08,7.47-1.02,1.07-16.24,17.12-.09.09-1.93,2.03c-8.91,8.87-21.37,14.13-35.06,13.95-.05,0-.1,0-.15,0v-30.93l2.26-2.26,26.65-26.64L90.99.59c2.46-.39,4.99-.59,7.56-.59h39.64Z"/>
    <path class="cls-1" d="M138.18,122.32v.24h-42.15c-4.63,0-9.07-1.84-12.34-5.11l-28.13-28.13h42.39c4.63,0,9.07,1.84,12.34,5.11l1.47,1.47,26.43,26.43Z"/>
  </g>
</svg>
